<svg width="239" height="27" viewBox="0 0 239 27" fill="none" xmlns="http://www.w3.org/2000/svg">
<path d="M9.88103 0.55307L0 12.0576L9.88103 23.5601L12.2174 19.8829L5.55897 12.0556L12.2174 4.2283L9.88103 0.55307ZM14.2051 23.2854H18.5415L25.4359 0.764989H21.0974L14.2051 23.2854ZM30.119 0.55307L27.7826 4.23027L34.441 12.0576L27.7826 19.8848L30.119 23.562L40 12.0595L30.119 0.55307Z" fill="#FF57B2"/>
<path d="M43.7955 7.66335V5.45455H55.4006V7.66335H50.9048V20H48.2912V7.66335H43.7955ZM62.9929 15.4119V9.09091H65.5639V20H63.071V18.0611H62.9574C62.7112 18.6719 62.3063 19.1714 61.7429 19.5597C61.1842 19.9479 60.4953 20.142 59.6761 20.142C58.9612 20.142 58.3291 19.9834 57.7798 19.6662C57.2353 19.3442 56.8092 18.8778 56.5014 18.267C56.1937 17.6515 56.0398 16.9081 56.0398 16.0369V9.09091H58.6108V15.6392C58.6108 16.3305 58.8002 16.8797 59.179 17.2869C59.5578 17.6941 60.0549 17.8977 60.6705 17.8977C61.0492 17.8977 61.4162 17.8054 61.7713 17.6207C62.1264 17.4361 62.4176 17.1615 62.6449 16.7969C62.8769 16.4276 62.9929 15.9659 62.9929 15.4119ZM70.7788 13.608V20H68.2077V9.09091H70.6651V10.9446H70.793C71.0439 10.3338 71.444 9.84848 71.9933 9.48864C72.5472 9.12879 73.2314 8.94886 74.0458 8.94886C74.7987 8.94886 75.4544 9.10985 76.0131 9.43182C76.5766 9.75379 77.0122 10.2202 77.32 10.831C77.6325 11.4418 77.7863 12.1828 77.7816 13.054V20H75.2106V13.4517C75.2106 12.7225 75.0212 12.152 74.6424 11.7401C74.2683 11.3281 73.7499 11.1222 73.087 11.1222C72.6372 11.1222 72.2371 11.2216 71.8867 11.4205C71.5411 11.6146 71.2688 11.8963 71.07 12.2656C70.8758 12.6349 70.7788 13.0824 70.7788 13.608ZM84.4435 20.1918C83.5865 20.1918 82.8195 19.9716 82.1424 19.5312C81.4653 19.0909 80.9303 18.4517 80.5373 17.6136C80.1443 16.7756 79.9478 15.7576 79.9478 14.5597C79.9478 13.3475 80.1467 12.3248 80.5444 11.4915C80.9469 10.6534 81.489 10.0213 82.1708 9.59517C82.8526 9.1643 83.6126 8.94886 84.4506 8.94886C85.0898 8.94886 85.6154 9.05777 86.0273 9.27557C86.4393 9.48864 86.766 9.74669 87.0075 10.0497C87.2489 10.348 87.436 10.6297 87.5685 10.8949H87.6751V5.45455H90.2532V20H87.7248V18.2812H87.5685C87.436 18.5464 87.2442 18.8281 86.9933 19.1264C86.7423 19.42 86.4109 19.6709 85.9989 19.8793C85.587 20.0876 85.0685 20.1918 84.4435 20.1918ZM85.1609 18.0824C85.7054 18.0824 86.1694 17.9356 86.5529 17.642C86.9364 17.3437 87.2276 16.9295 87.4265 16.3991C87.6254 15.8688 87.7248 15.2509 87.7248 14.5455C87.7248 13.84 87.6254 13.2268 87.4265 12.706C87.2324 12.1851 86.9435 11.7803 86.56 11.4915C86.1812 11.2027 85.7148 11.0582 85.1609 11.0582C84.588 11.0582 84.1097 11.2074 83.7262 11.5057C83.3427 11.804 83.0539 12.2159 82.8597 12.7415C82.6656 13.267 82.5685 13.8684 82.5685 14.5455C82.5685 15.2273 82.6656 15.8357 82.8597 16.3707C83.0586 16.901 83.3498 17.3201 83.7333 17.6278C84.1216 17.9309 84.5974 18.0824 85.1609 18.0824ZM97.8224 20.2131C96.7287 20.2131 95.7841 19.9858 94.9886 19.5312C94.1979 19.072 93.5895 18.4233 93.1634 17.5852C92.7372 16.7424 92.5241 15.7505 92.5241 14.6094C92.5241 13.4872 92.7372 12.5024 93.1634 11.6548C93.5942 10.8026 94.1955 10.1397 94.9673 9.66619C95.7391 9.18797 96.6458 8.94886 97.6875 8.94886C98.3598 8.94886 98.9943 9.05777 99.5909 9.27557C100.192 9.48864 100.723 9.82008 101.182 10.2699C101.646 10.7197 102.01 11.2926 102.276 11.9886C102.541 12.6799 102.673 13.5038 102.673 14.4602V15.2486H93.7315V13.5156H100.209C100.204 13.0232 100.098 12.5852 99.8892 12.2017C99.6809 11.8134 99.3897 11.508 99.0156 11.2855C98.6463 11.063 98.2154 10.9517 97.723 10.9517C97.1974 10.9517 96.7358 11.0795 96.3381 11.3352C95.9403 11.5862 95.6302 11.9176 95.4077 12.3295C95.1899 12.7367 95.0786 13.1842 95.0739 13.6719V15.1847C95.0739 15.8191 95.1899 16.3636 95.4219 16.8182C95.6539 17.268 95.9782 17.6136 96.3949 17.8551C96.8116 18.0919 97.2992 18.2102 97.858 18.2102C98.232 18.2102 98.5705 18.1581 98.8736 18.054C99.1766 17.9451 99.4394 17.7865 99.6619 17.5781C99.8845 17.3698 100.053 17.1117 100.166 16.804L102.567 17.0739C102.415 17.7083 102.126 18.2623 101.7 18.7358C101.279 19.2045 100.739 19.5691 100.081 19.8295C99.4228 20.0852 98.67 20.2131 97.8224 20.2131ZM99.0582 7.78409L97.6165 5.96591L96.1747 7.78409H93.9233V7.68466L96.6151 4.61648H98.625L101.31 7.68466V7.78409H99.0582ZM106.432 20.1562C106.001 20.1562 105.632 20.0047 105.324 19.7017C105.016 19.3987 104.865 19.0294 104.87 18.5938C104.865 18.1676 105.016 17.803 105.324 17.5C105.632 17.197 106.001 17.0455 106.432 17.0455C106.849 17.0455 107.211 17.197 107.519 17.5C107.831 17.803 107.99 18.1676 107.995 18.5938C107.99 18.8826 107.914 19.1454 107.767 19.3821C107.625 19.6188 107.436 19.8082 107.199 19.9503C106.967 20.0876 106.712 20.1562 106.432 20.1562ZM110.763 20V5.45455H113.334V10.8949H113.44C113.573 10.6297 113.76 10.348 114.001 10.0497C114.243 9.74669 114.57 9.48864 114.982 9.27557C115.393 9.05777 115.919 8.94886 116.558 8.94886C117.401 8.94886 118.161 9.1643 118.838 9.59517C119.52 10.0213 120.06 10.6534 120.457 11.4915C120.86 12.3248 121.061 13.3475 121.061 14.5597C121.061 15.7576 120.865 16.7756 120.472 17.6136C120.079 18.4517 119.544 19.0909 118.866 19.5312C118.189 19.9716 117.422 20.1918 116.565 20.1918C115.94 20.1918 115.422 20.0876 115.01 19.8793C114.598 19.6709 114.267 19.42 114.016 19.1264C113.769 18.8281 113.578 18.5464 113.44 18.2812H113.291V20H110.763ZM113.284 14.5455C113.284 15.2509 113.384 15.8688 113.582 16.3991C113.786 16.9295 114.077 17.3437 114.456 17.642C114.839 17.9356 115.304 18.0824 115.848 18.0824C116.416 18.0824 116.892 17.9309 117.276 17.6278C117.659 17.3201 117.948 16.901 118.142 16.3707C118.341 15.8357 118.44 15.2273 118.44 14.5455C118.44 13.8684 118.343 13.267 118.149 12.7415C117.955 12.2159 117.666 11.804 117.283 11.5057C116.899 11.2074 116.421 11.0582 115.848 11.0582C115.299 11.0582 114.832 11.2027 114.449 11.4915C114.065 11.7803 113.774 12.1851 113.575 12.706C113.381 13.2268 113.284 13.84 113.284 14.5455ZM125.818 5.45455V20H123.247V5.45455H125.818ZM133.22 20.2131C132.155 20.2131 131.232 19.9787 130.45 19.5099C129.669 19.0412 129.063 18.3854 128.632 17.5426C128.206 16.6998 127.993 15.715 127.993 14.5881C127.993 13.4612 128.206 12.474 128.632 11.6264C129.063 10.7789 129.669 10.1207 130.45 9.65199C131.232 9.18324 132.155 8.94886 133.22 8.94886C134.286 8.94886 135.209 9.18324 135.99 9.65199C136.771 10.1207 137.375 10.7789 137.801 11.6264C138.232 12.474 138.447 13.4612 138.447 14.5881C138.447 15.715 138.232 16.6998 137.801 17.5426C137.375 18.3854 136.771 19.0412 135.99 19.5099C135.209 19.9787 134.286 20.2131 133.22 20.2131ZM133.234 18.1534C133.812 18.1534 134.295 17.9948 134.683 17.6776C135.071 17.3556 135.36 16.9247 135.55 16.3849C135.744 15.8452 135.841 15.2438 135.841 14.581C135.841 13.9134 135.744 13.3097 135.55 12.7699C135.36 12.2254 135.071 11.7921 134.683 11.4702C134.295 11.1482 133.812 10.9872 133.234 10.9872C132.643 10.9872 132.15 11.1482 131.757 11.4702C131.369 11.7921 131.078 12.2254 130.884 12.7699C130.694 13.3097 130.599 13.9134 130.599 14.581C130.599 15.2438 130.694 15.8452 130.884 16.3849C131.078 16.9247 131.369 17.3556 131.757 17.6776C132.15 17.9948 132.643 18.1534 133.234 18.1534ZM145.374 24.3182C144.451 24.3182 143.658 24.1927 142.995 23.9418C142.332 23.6955 141.799 23.3641 141.397 22.9474C140.994 22.5308 140.715 22.0691 140.559 21.5625L142.874 21.0014C142.978 21.2145 143.13 21.4252 143.328 21.6335C143.527 21.8466 143.795 22.0218 144.131 22.1591C144.472 22.3011 144.9 22.3722 145.417 22.3722C146.146 22.3722 146.749 22.1946 147.228 21.8395C147.706 21.4891 147.945 20.9115 147.945 20.1065V18.0398H147.817C147.685 18.3049 147.49 18.5772 147.235 18.8565C146.984 19.1359 146.65 19.3703 146.233 19.5597C145.821 19.7491 145.303 19.8438 144.678 19.8438C143.84 19.8438 143.08 19.6473 142.398 19.2543C141.721 18.8565 141.181 18.2647 140.779 17.4787C140.381 16.688 140.182 15.6984 140.182 14.5099C140.182 13.312 140.381 12.3011 140.779 11.4773C141.181 10.6487 141.723 10.0213 142.405 9.59517C143.087 9.1643 143.847 8.94886 144.685 8.94886C145.324 8.94886 145.85 9.05777 146.262 9.27557C146.678 9.48864 147.01 9.74669 147.256 10.0497C147.502 10.348 147.689 10.6297 147.817 10.8949H147.959V9.09091H150.495V20.1776C150.495 21.1103 150.272 21.8821 149.827 22.4929C149.382 23.1037 148.774 23.5606 148.002 23.8636C147.23 24.1667 146.354 24.3182 145.374 24.3182ZM145.395 17.8267C145.94 17.8267 146.404 17.6941 146.787 17.429C147.171 17.1638 147.462 16.7827 147.661 16.2855C147.86 15.7884 147.959 15.1918 147.959 14.4957C147.959 13.8092 147.86 13.2079 147.661 12.6918C147.467 12.1757 147.178 11.7756 146.794 11.4915C146.416 11.2027 145.949 11.0582 145.395 11.0582C144.822 11.0582 144.344 11.2074 143.961 11.5057C143.577 11.804 143.288 12.2135 143.094 12.7344C142.9 13.2505 142.803 13.8376 142.803 14.4957C142.803 15.1634 142.9 15.7481 143.094 16.25C143.293 16.7472 143.584 17.1354 143.968 17.4148C144.356 17.6894 144.832 17.8267 145.395 17.8267Z" fill="white"/>
<path d="M157.045 18.0739C158.136 18.0739 159.082 17.162 159.09 16.0284C159.082 14.912 158.136 14 157.045 14C155.92 14 154.991 14.912 155 16.0284C154.991 17.162 155.92 18.0739 157.045 18.0739Z" fill="#FF57B2"/>
</svg>
